Genre:Drama
Language:English
 
http://www.imdb.com/title/tt1550524/

Source:720p.BluRay.x264-Japhson Thanks!

Format : AVI
Format/Info : Audio Video Interleave
File size : 991 MiB
Duration : 1h 49mn
Overall bit rate : 1 263 Kbps

Video
ID : 0
Format : MPEG-4 Visual
Format profile : Advanced Simple@L5
Format settings, BVOP : Yes
Format settings, QPel : No
Format settings, GMC : No warppoints
Format settings, Matrix : Default (H.263)
Codec ID : XVID
Codec ID/Hint : XviD
Duration : 1h 49mn
Bit rate : 806 Kbps
Width : 640 pixels
Height : 272 pixels
Display aspect ratio : 2.35:1
Frame rate : 23.976 fps
Color space : YUV
Chroma subsampling : 4:2:0
Bit depth : 8 bits
Scan type : Progressive
Bits/(Pixel*Frame) : 0.193
Stream size : 632 MiB (64%)
Writing library : XviD 1.2.1 (UTC 2008-12-04)

Audio
ID : 1
Format : AC-3
Format/Info : Audio Coding 3
Mode extension : CM (complete main)
Codec ID : 2000
Duration : 1h 49mn
Bit rate mode : Constant
Bit rate : 448 Kbps
Channel(s) : 6 channels
Channel positions : Front: L C R, Side: L R, LFE
Sampling rate : 48.0 KHz
Bit depth : 16 bits
Stream size : 352 MiB (35%)
Alignment : Aligned on interleaves
Interleave, duration : 42 ms (1.00 video frame)
Interleave, preload duration : 512 ms


Plot:
Brooklyn, 1975: two brothers looking for a way out of their working-class neighborhood make a pact to rob a local theater on the night of a Rolling Stones concert.
 
http://leetleech.org/images/10101462551731782077.png
 
http://leetleech.org/images/67179270528208863529.png
 
http://leetleech.org/images/47410780195352425741.png
 
http://leetleech.org/images/47878324638420239183.png
